<?xml version="1.0" encoding="utf-8"?>
<!-- Generator: Adobe Illustrator 23.0.3, SVG Export Plug-In . SVG Version: 6.00 Build 0)  -->
<svg version="1.1" id="Layer_1" xmlns="http://www.w3.org/2000/svg" xmlns:xlink="http://www.w3.org/1999/xlink" x="0px" y="0px"
	 viewBox="0 0 493.42 142.44" style="enable-background:new 0 0 493.42 142.44;" xml:space="preserve">
<g>
	<g>
		<path d="M57.36,5L57.36,5 M57.36,5l-9.8,49.14L72.34,32.3h38.92L72.9,66.88l25.06,42h-37.1L47.7,86.62l-8.12,7.56l-2.94,14.7H5
			L25.72,5H57.36 M57.37,0L57.37,0H25.72c-2.38,0-4.44,1.68-4.9,4.02L0.1,107.9c-0.29,1.47,0.09,2.99,1.04,4.15s2.37,1.83,3.87,1.83
			h31.64c2.38,0,4.44-1.68,4.9-4.02l2.62-13.12l2.39-2.23l10,16.91c0.9,1.52,2.54,2.46,4.3,2.46h37.1c1.8,0,3.46-0.97,4.35-2.53
			c0.89-1.56,0.87-3.49-0.05-5.03L79.3,67.84l35.31-31.83c1.54-1.39,2.06-3.58,1.32-5.51c-0.74-1.93-2.6-3.21-4.67-3.21H72.34
			c-1.22,0-2.39,0.44-3.31,1.25L55.36,40.6l6.87-34.44C62.32,5.79,62.36,5.4,62.36,5C62.36,2.24,60.13,0,57.37,0L57.37,0z M57.36,10
			L57.36,10L57.36,10L57.36,10z"/>
	</g>
	<g>
		<path d="M142.34,30.9c10.27,0,17.55,3.17,21.84,9.52l1.68-8.12h31.64l-15.26,76.58h-29.82l1.4-7c-5.79,5.6-12.69,8.4-20.72,8.4
			c-5.23,0-10.27-1.4-15.12-4.2c-4.85-2.8-8.8-6.88-11.83-12.25c-3.03-5.37-4.55-11.69-4.55-18.97c0-8.21,1.84-15.68,5.53-22.4
			c3.69-6.72,8.66-11.99,14.91-15.82C128.29,32.81,135.06,30.9,142.34,30.9 M145,85.36c4.11,0,7.44-1.59,10.01-4.76
			c2.57-3.17,3.85-7.42,3.85-12.74c0-3.64-1-6.56-3.01-8.75c-2.01-2.19-4.78-3.29-8.33-3.29c-4.11,0-7.44,1.59-10.01,4.76
			c-2.57,3.17-3.85,7.42-3.85,12.74c0,3.64,1,6.56,3.01,8.75C138.68,84.26,141.45,85.36,145,85.36 M142.34,25.9
			c-8.18,0-15.89,2.18-22.91,6.48c-6.98,4.27-12.59,10.22-16.68,17.68c-4.08,7.43-6.15,15.78-6.15,24.8c0,8.12,1.75,15.33,5.2,21.43
			c3.46,6.13,8.06,10.88,13.68,14.12c5.6,3.23,11.53,4.87,17.62,4.87c5.53,0,10.64-1.16,15.28-3.45c0.06,0.08,0.11,0.15,0.17,0.22
			c0.95,1.16,2.37,1.83,3.87,1.83h29.82c2.38,0,4.44-1.68,4.9-4.02l15.26-76.58c0.29-1.47-0.09-2.99-1.04-4.15S199,27.3,197.5,27.3
			h-31.64c-2.14,0-4.01,1.35-4.71,3.32C156.22,27.48,149.93,25.9,142.34,25.9L142.34,25.9z M145,80.36c-2.8,0-3.99-0.95-4.64-1.66
			c-1.15-1.25-1.7-3.01-1.7-5.38c0-4.12,0.92-7.35,2.74-9.59c1.63-2.01,3.51-2.91,6.12-2.91c2.79,0,3.99,0.95,4.64,1.67
			c1.14,1.25,1.7,3.01,1.7,5.37c0,4.12-0.92,7.35-2.74,9.6C149.5,79.46,147.61,80.36,145,80.36L145,80.36z"/>
	</g>
	<g>
		<path d="M296.76,32.3l-47.04,78.12c-4.2,7-8.31,12.44-12.32,16.31c-4.01,3.87-8.28,6.63-12.81,8.26
			c-4.53,1.63-9.82,2.45-15.89,2.45c-4.2,0-8.38-0.61-12.53-1.82s-7.49-2.8-10.01-4.76l13.72-21.98c3.55,2.71,7.37,4.06,11.48,4.06
			c3.08,0,5.69-1.07,7.84-3.22L202.4,32.3h31.5l7.84,41.16l24.08-41.16H296.76 M296.76,27.3h-30.94c-1.78,0-3.42,0.94-4.32,2.48
			l-17.35,29.65l-5.35-28.06c-0.45-2.36-2.51-4.06-4.91-4.06h-31.5c-1.51,0-2.94,0.68-3.89,1.86s-1.31,2.72-0.99,4.2l16.1,74.2
			c-0.68,0.26-1.42,0.38-2.25,0.38c-3.01,0-5.77-0.99-8.45-3.03c-0.88-0.67-1.95-1.03-3.03-1.03c-0.3,0-0.6,0.03-0.9,0.08
			c-1.38,0.25-2.6,1.08-3.34,2.27l-13.72,21.98c-1.36,2.17-0.85,5.02,1.17,6.59c3.01,2.34,6.94,4.23,11.68,5.61
			c4.59,1.34,9.28,2.02,13.93,2.02c6.61,0,12.53-0.92,17.58-2.75c5.18-1.87,10.08-5.02,14.59-9.37c4.31-4.17,8.73-10,13.14-17.33
			l47.04-78.11c0.93-1.54,0.96-3.47,0.07-5.04C300.22,28.27,298.56,27.3,296.76,27.3L296.76,27.3z M296.76,37.3L296.76,37.3
			L296.76,37.3L296.76,37.3z"/>
	</g>
	<g>
		<path d="M328.4,30.9c10.27,0,17.54,3.17,21.84,9.52l1.68-8.12h31.64l-15.26,76.58h-29.82l1.4-7c-5.79,5.6-12.69,8.4-20.72,8.4
			c-5.23,0-10.27-1.4-15.12-4.2c-4.85-2.8-8.8-6.88-11.83-12.25c-3.03-5.37-4.55-11.69-4.55-18.97c0-8.21,1.84-15.68,5.53-22.4
			c3.69-6.72,8.66-11.99,14.91-15.82C314.35,32.81,321.12,30.9,328.4,30.9 M331.06,85.36c4.11,0,7.44-1.59,10.01-4.76
			c2.57-3.17,3.85-7.42,3.85-12.74c0-3.64-1-6.56-3.01-8.75c-2.01-2.19-4.79-3.29-8.33-3.29c-4.11,0-7.44,1.59-10.01,4.76
			c-2.57,3.17-3.85,7.42-3.85,12.74c0,3.64,1,6.56,3.01,8.75C324.73,84.26,327.51,85.36,331.06,85.36 M328.4,25.9
			c-8.18,0-15.89,2.18-22.91,6.48c-6.98,4.27-12.59,10.22-16.68,17.68c-4.08,7.43-6.15,15.78-6.15,24.8c0,8.12,1.75,15.33,5.2,21.43
			c3.46,6.13,8.07,10.88,13.68,14.12c5.6,3.23,11.53,4.87,17.62,4.87c5.53,0,10.64-1.16,15.28-3.45c0.06,0.08,0.11,0.15,0.17,0.22
			c0.95,1.16,2.37,1.83,3.87,1.83h29.82c2.38,0,4.44-1.68,4.9-4.02l15.26-76.58c0.29-1.47-0.09-2.99-1.04-4.15s-2.37-1.83-3.87-1.83
			h-31.64c-2.14,0-4.01,1.35-4.71,3.32C342.28,27.48,335.99,25.9,328.4,25.9L328.4,25.9z M331.06,80.36c-2.8,0-3.99-0.95-4.64-1.66
			c-1.15-1.25-1.7-3.01-1.7-5.38c0-4.12,0.92-7.35,2.74-9.59c1.63-2.01,3.51-2.91,6.12-2.91c2.79,0,3.99,0.95,4.64,1.67
			c1.14,1.25,1.7,3.01,1.7,5.37c0,4.12-0.92,7.35-2.74,9.6C335.56,79.46,333.67,80.36,331.06,80.36L331.06,80.36z"/>
	</g>
	<g>
		<path d="M434.52,5L434.52,5 M434.52,5l-9.8,49.14L449.5,32.3h38.92l-38.36,34.58l25.06,42h-37.1l-13.16-22.26l-8.12,7.56
			l-2.94,14.7h-31.64L402.88,5H434.52 M434.52,0L434.52,0h-31.65c-2.38,0-4.44,1.68-4.9,4.02L377.25,107.9
			c-0.29,1.47,0.09,2.99,1.04,4.15s2.37,1.83,3.87,1.83h31.64c2.38,0,4.44-1.68,4.9-4.02l2.62-13.12l2.39-2.23l10,16.91
			c0.9,1.52,2.54,2.46,4.3,2.46h37.1c1.8,0,3.46-0.97,4.35-2.53c0.89-1.56,0.87-3.49-0.05-5.03l-22.96-38.47l35.31-31.83
			c1.54-1.39,2.06-3.58,1.32-5.51c-0.74-1.93-2.6-3.21-4.67-3.21H449.5c-1.22,0-2.39,0.44-3.31,1.25L432.52,40.6l6.87-34.44
			c0.09-0.37,0.14-0.76,0.14-1.16C439.52,2.24,437.28,0,434.52,0L434.52,0z M434.52,10L434.52,10L434.52,10L434.52,10z"/>
	</g>
</g>
</svg>
