<?xml version="1.0" encoding="utf-8"?>
 <svg version="1.1" id="Layer_1" xmlns="http://www.w3.org/2000/svg" xmlns:xlink="http://www.w3.org/1999/xlink" x="0px" y="0px"
	 viewBox="0 0 501.13 112.48" style="enable-background:new 0 0 501.13 112.48;" xml:space="preserve">
<g>
	<g>
		<path d="M171.04,7.24l-50.96,98H84.66l-5.6-51.66l-26.88,51.66H16.76L5,7.24h32.62l6.3,55.86L73.04,7.24h30.38l5.6,56.7
			l29.54-56.7H171.04 M171.04,2.24h-32.48c-1.86,0-3.57,1.04-4.43,2.69l-21.78,41.81L108.4,6.75c-0.25-2.56-2.4-4.51-4.98-4.51
			H73.04c-1.86,0-3.57,1.04-4.43,2.69L47.05,46.27L42.59,6.68c-0.29-2.53-2.42-4.44-4.97-4.44H5c-1.43,0-2.79,0.61-3.74,1.68
			s-1.39,2.49-1.22,3.91l11.76,98c0.3,2.51,2.43,4.4,4.96,4.4h35.42c1.86,0,3.57-1.04,4.44-2.69l19.25-37l3.82,35.24
			c0.28,2.54,2.42,4.46,4.97,4.46h35.42c1.87,0,3.58-1.04,4.44-2.69l50.96-98c0.81-1.55,0.74-3.41-0.16-4.9
			C174.41,3.15,172.79,2.24,171.04,2.24L171.04,2.24z M171.04,12.24L171.04,12.24L171.04,12.24L171.04,12.24z"/>
	</g>
	<g>
		<path d="M221.69,5c9.99,0,18.74,1.84,26.25,5.53c7.51,3.69,13.3,8.84,17.36,15.47c4.06,6.63,6.09,14.23,6.09,22.82
			c0,11.39-2.64,21.54-7.91,30.45c-5.27,8.91-12.6,15.84-21.98,20.79c-9.38,4.95-20,7.42-31.85,7.42c-9.99,0-18.74-1.84-26.25-5.53
			c-7.51-3.69-13.3-8.84-17.36-15.47c-4.06-6.63-6.09-14.23-6.09-22.82c0-11.39,2.64-21.54,7.91-30.45
			c5.27-8.91,12.6-15.84,21.98-20.79C199.22,7.47,209.84,5,221.69,5 M212.45,80.74c5.23,0,9.78-1.35,13.65-4.06
			c3.87-2.71,6.84-6.35,8.89-10.92c2.05-4.57,3.08-9.57,3.08-14.98c0-5.79-1.7-10.41-5.11-13.86c-3.41-3.45-8.1-5.18-14.07-5.18
			c-5.23,0-9.78,1.35-13.65,4.06c-3.87,2.71-6.84,6.35-8.89,10.92c-2.05,4.57-3.08,9.57-3.08,14.98c0,5.79,1.7,10.41,5.11,13.86
			C201.79,79.01,206.48,80.74,212.45,80.74 M221.69,0c-12.62,0-24.12,2.69-34.18,8c-10.17,5.36-18.23,12.99-23.95,22.67
			c-5.71,9.65-8.61,20.75-8.61,33c0,9.48,2.3,18.04,6.83,25.43c4.54,7.42,11.08,13.25,19.42,17.35c8.17,4.01,17.74,6.04,28.45,6.04
			c12.62,0,24.12-2.69,34.18-8c10.16-5.36,18.22-12.99,23.95-22.67c5.71-9.65,8.61-20.76,8.61-33c0-9.48-2.3-18.04-6.83-25.43
			c-4.54-7.41-11.08-13.25-19.42-17.35C241.97,2.03,232.4,0,221.69,0L221.69,0z M212.45,75.74c-4.62,0-8.06-1.21-10.51-3.69
			c-2.47-2.5-3.67-5.89-3.67-10.35c0-4.68,0.89-9.03,2.64-12.93c1.69-3.77,4.04-6.67,7.19-8.87c3.04-2.13,6.57-3.16,10.79-3.16
			c4.62,0,8.06,1.21,10.51,3.69c2.47,2.5,3.67,5.89,3.67,10.35c0,4.68-0.89,9.03-2.64,12.93c-1.69,3.77-4.04,6.67-7.19,8.87
			C220.2,74.71,216.67,75.74,212.45,75.74L212.45,75.74z"/>
	</g>
	<g>
		<path d="M335.68,7.24c12.88,0,22.89,2.82,30.03,8.47c7.14,5.65,10.71,13.56,10.71,23.73c0,8.68-2.31,16.26-6.93,22.75
			c-4.62,6.49-11.13,11.32-19.53,14.49l16.38,28.56h-34.3L318.18,80.6h-8.12l-4.9,24.64h-33.04l19.6-98H335.68 M314.96,55.68h13.58
			c4.57,0,8.12-1.14,10.64-3.43c2.52-2.29,3.78-5.48,3.78-9.59c0-6.63-4.11-9.94-12.32-9.94h-11.06L314.96,55.68 M335.68,2.24
			h-43.96c-2.38,0-4.44,1.68-4.9,4.02l-19.6,98c-0.29,1.47,0.09,2.99,1.04,4.15c0.95,1.16,2.37,1.83,3.87,1.83h33.04
			c2.39,0,4.44-1.69,4.9-4.02l4.1-20.62h1.09l12.43,22.09c0.89,1.57,2.55,2.55,4.36,2.55h34.3c1.78,0,3.43-0.95,4.33-2.49
			c0.89-1.54,0.9-3.45,0.01-4.99l-13.61-23.73c6.81-3.43,12.35-8.1,16.5-13.93c5.21-7.32,7.86-15.95,7.86-25.65
			c0-11.73-4.24-21.03-12.61-27.65C360.8,5.45,349.65,2.24,335.68,2.24L335.68,2.24z M323.67,37.72h6.97c7.32,0,7.32,2.74,7.32,4.94
			c0,3.54-1.22,5.05-2.14,5.89c-1.56,1.42-4.01,2.13-7.28,2.13h-7.47L323.67,37.72L323.67,37.72z"/>
	</g>
	<g>
		<path d="M496.13,7.24L446.99,51.9l31.92,53.34h-36.82l-19.88-31.92l-9.24,8.54l-4.62,23.38h-32.48l19.6-98h32.48l-7,34.72
			l37.24-34.72H496.13 M427.95,7.24L427.95,7.24 M496.13,2.24h-37.94c-1.27,0-2.48,0.48-3.41,1.34l-25.85,24.1l3.89-19.28
			c0.09-0.38,0.14-0.77,0.14-1.17c0-2.76-2.24-5-5-5h-0.01h-32.48c-2.38,0-4.44,1.68-4.9,4.02l-19.6,98
			c-0.29,1.47,0.09,2.99,1.04,4.15c0.95,1.16,2.37,1.83,3.87,1.83h32.48c2.39,0,4.44-1.69,4.91-4.03l4.31-21.78l3.6-3.33
			l16.68,26.79c0.91,1.47,2.52,2.36,4.24,2.36h36.82c1.8,0,3.46-0.97,4.35-2.53c0.89-1.57,0.87-3.49-0.06-5.03l-29.82-49.83
			l46.11-41.91c1.53-1.39,2.05-3.58,1.3-5.5C500.05,3.51,498.2,2.24,496.13,2.24L496.13,2.24z M496.13,12.24L496.13,12.24
			L496.13,12.24L496.13,12.24z"/>
	</g>
</g>
</svg>
